<svg id="Layer_1" data-name="Layer 1" xmlns="http://www.w3.org/2000/svg" viewBox="0 0 48.71 45"><defs><style>.cls-1{fill:#c69a32;fill-rule:evenodd;}</style></defs><path id="path0" class="cls-1" d="M19.78,1.73c-2.05.65-2.7,1.15-2.78,2.16l0,.36.39,0c.8.06,2.24-1,3.16-2.23.46-.65.39-.68-.75-.32m8.72-.15A7.35,7.35,0,0,0,30.93,4c1.51.69,2-.21.67-1.34-.6-.53-3.1-1.41-3.1-1.09M15.37,2.5C13.83,3.57,13,4.67,13,5.75c0,.7.13.75.75.32a5.08,5.08,0,0,0,2.08-2.68A4.35,4.35,0,0,0,16.19,2l-.82.55m17.74-.41A6.48,6.48,0,0,0,34,4.57c.61.91,1.92,2,2.14,1.76A3,3,0,0,0,36,4.64c-.4-.84-2.92-3-2.9-2.55m4.47,3.24c.09,2.15.29,2.73,1.27,3.74.61.63.67.63.84.11.42-1.25-.22-3-1.65-4.57l-.51-.54,0,1.26M11,4.9c-1.27,1.65-1.43,2-1.43,3.4s.09,1.58.87.78a4.65,4.65,0,0,0,1.32-3.61c0-1.49,0-1.51-.76-.57m4.61.65a3.23,3.23,0,0,0-1.26.64c-.46.5,1.8.55,5.05.11.56-.08.46-.18-.54-.51a8.7,8.7,0,0,0-3.25-.24m15.86,0a6.81,6.81,0,0,0-1.9.65,8.39,8.39,0,0,0,2.94.36c2.6.08,3-.07,1.86-.69a5.9,5.9,0,0,0-2.9-.32m-17.8,2a4.59,4.59,0,0,0-2.17,1.14l-.67.57.47,0a7.65,7.65,0,0,0,2.55-.49,8.52,8.52,0,0,0,2.53-1.3,8.92,8.92,0,0,0-2.71,0m19.21-.07c-.06.11.29.33,1.12.69l1,.46a7.2,7.2,0,0,0,3,.67h.45l-.36-.37a5.2,5.2,0,0,0-3.94-1.51,3.79,3.79,0,0,0-1.29.05M7.6,8.11c-1,3-1.07,4.13-.25,5.48l.18.3.22-.26a4.23,4.23,0,0,0,.79-2.78A5.93,5.93,0,0,0,8.1,8.48c-.27-.86-.31-.89-.5-.37m33.75.05a5.12,5.12,0,0,0-.52,2.78v1.35l.36.71c.48.95.58,1,1,.22.6-1.16.51-2.3-.34-4.74-.27-.77-.25-.75-.46-.32M12.9,9.9c-2.12.49-4.37,2.18-4.37,3.26,0,.51,2.12-.74,4-2.35,1.33-1.14,1.33-1.14.37-.91m22.83-.12c0,.45,3.82,3.23,4.69,3.42l.31.06-.07-.3c-.24-1.23-2.12-2.58-4.24-3.06l-.54-.14c-.08,0-.15,0-.15,0m-30.86,3a10.44,10.44,0,0,0,.45,5.07c1.37,2.16,2.06-.93.79-3.49C5.53,13.23,5,12.49,4.87,12.79m38.92.62c-.26.45-.62,1.11-.81,1.47l-.34.67v1.36c0,1.92.23,2.21,1,1.33s1.09-3.14.77-5.2c-.09-.57-.12-.56-.67.37m-33.2.05c-2,1.16-2.88,2-3.28,3.39-.15.54-.19,1.09-.06,1.09a8,8,0,0,0,2.42-2.32c.17-.24.58-.83.91-1.32s.67-1,.74-1.06c.18-.26,0-.22-.73.22M38,13.22a7.58,7.58,0,0,0,.55.75,10.68,10.68,0,0,1,.88,1.31c.6,1,2.48,2.86,2.71,2.63s-.45-2.08-1.37-3-3-2.16-2.77-1.68M15.57,16.41c-.3.42-.24.5.48.62.36.06.84.14,1.06.19l.95.17c.54.11.76.15,1.86.41.84.2.86.2,1-.27a1.23,1.23,0,0,0,.11-.45C21,17,17.91,16.45,16,16.19a.4.4,0,0,0-.39.22m11.05.24c-.08,0-.11.52-.11,2v2l4.18,0,4.18,0v-4H30.8c-2.23,0-4.12,0-4.18,0m13,.79a27.69,27.69,0,0,0,1,3.08c.48,1.14,1.54,2.66,1.77,2.52a6.25,6.25,0,0,0-.25-2.65,4.89,4.89,0,0,0-1.62-2.31l-1-1,.06.36M8.92,18a7.25,7.25,0,0,0-1.57,2c-.6,1.37-.67,3.66-.08,2.92a8.66,8.66,0,0,0,1.79-3.29c.21-.65.46-1.4.56-1.66.34-1,.25-1-.7,0m24.95-.6c.2.08.2.81,0,.89s-1.5.05-3.16.05-3.07,0-3.15-.05-.21-.81,0-.88,6.17-.07,6.34,0M3.25,18.45c0,.19.13.68.22,1.09a7.37,7.37,0,0,1,.18.9,5.22,5.22,0,0,0,2.28,3.48c.46.23.52.17.52-.54a7.14,7.14,0,0,0-3-5.11l-.25-.16,0,.34M45.1,19c-1.73,1.78-2.23,2.8-2.23,4.52,0,.64,0,.65.56.37A4.59,4.59,0,0,0,45.1,22.1a13.75,13.75,0,0,0,1-3.73c.07-.41-.1-.3-1,.63m-30.76-.48a1.42,1.42,0,0,0,0,.43l0,.3,2.08.05,2.08,0,0,3.62c0,4.26.15,3.87-1.21,3.78-1-.06-1,0-1,.36s.27.43,1.34.49c1.72.09,1.71.12,1.74-2.89a18.79,18.79,0,0,1,.11-2.33,3.69,3.69,0,0,1,.54.77,12,12,0,0,0,2.8,3.24c.73.56.7.56.95.15s.3-.55-.34-1c-1.11-.78-2.86-2.71-2.86-3.16,0-.1.17-.29.42-.47a13.69,13.69,0,0,0,2.22-2.22l.16-.28-.31-.24-.32-.24-1,1c-1,1-1.67,1.53-1.84,1.42a2.62,2.62,0,0,1-.54-1.91c0-.75,0-.93-.14-1a31.35,31.35,0,0,0-5,.07M34,19.43v.45H27.46l0-.34c-.05-.65-.27-.61,3.3-.58L34,19v.45M13.08,21.14a.94.94,0,0,0,0,.39l0,.25,1.6,0c1.83,0,1.8,0,1.41.77a9.54,9.54,0,0,1-2.72,3.07l-.61.44.16.27c.27.46.34.48.76.18,2-1.39,4-4.37,3.64-5.38a14.76,14.76,0,0,0-4.25,0m17.23,0c-1,.23-1.76.37-2.35.46l-1.12.19a5.53,5.53,0,0,1-.74.08c-.39,0-.45.1-.26.46s0,.3,1.65.11c.54-.06.64,0,.64.47s0,.49-1.53.51l-1.4,0v.72l1.38,0c1.52,0,1.48,0,1.21.61a4.85,4.85,0,0,1-1.52,1.63c-.62.45-.62.42-.18.91s2.17-1.17,2.69-2.6l.19-.53h3.87v3.16l.21.05c.64.16.64.16.69-1.59l0-1.58,1.18,0,1.17-.05v-.72L35,23.36l-1.18,0,0-1.11,0-1.11-.42,0-.43,0,0,1.08-.05,1.09h-3.7l0-.57c0-.66,0-.66,1.09-.84.93-.16,1-.18.76-.57-.08-.18-.18-.32-.22-.31l-.38.07m9.48.82c0,2.68.49,5.21,1.18,6.08.26.33.31.31.53-.21.68-1.58.28-3.23-1.44-5.94-.18-.28-.27-.25-.27.07M9,22.34c-1.34,2.07-1.68,3.52-1.21,5.26.18.68.29.75.56.42.68-.86,1-2.18,1.11-4.7.08-1.72.06-1.77-.46-1m-6,1.71a17.26,17.26,0,0,0,2.35,4c.91.92,2.34,1.63,2.49,1.23S7,26.86,6.16,26.11a14.73,14.73,0,0,0-3.24-2.06m42.61.43c-2.62,1.59-4,3.26-4,4.76,0,.83,2.57-.82,3.29-2.12a11.82,11.82,0,0,0,1.43-3,4.54,4.54,0,0,0-.7.39M10,26.64l-.22.75a6.62,6.62,0,0,0,.27,5c.53.8.72.75.91-.22a7.94,7.94,0,0,0-.23-3.69L10.37,27c-.18-.84-.26-.91-.4-.36M39,26.32a3.09,3.09,0,0,0-.1.52c0,.25-.14.8-.23,1.22-.62,2.73-.65,3.08-.36,4a4.45,4.45,0,0,1,.18.73c0,.3.2.27.52-.08,1-1.06,1.1-3.48.23-6.29-.05-.16-.17-.2-.24-.09m-34.57,4,.27.34c.09.1.4.49.71.88,1.37,1.72,2.74,2.57,4.32,2.66,1,.06,1,0,.6-.57a6.91,6.91,0,0,0-2.93-2.49,11.64,11.64,0,0,0-2.51-.85c-.6-.16-.61-.16-.46,0m39.93-.05-1,.27A8.05,8.05,0,0,0,39,33.61c-.4.59-.36.63.55.57a6.25,6.25,0,0,0,4.58-2.95,9.45,9.45,0,0,1,.63-.79c.29-.31.24-.34-.31-.19m-8.12,2A6.31,6.31,0,0,0,35,35.9c-.07,1.16-.1,1.12.52.65,1.37-1.07,2-2.84,1.73-5.23l-.07-.77-.94,1.65m-24.21.29,0,1.81.3.56c.52,1,1.64,2.15,1.82,1.87.41-.65-.09-2.59-1.13-4.4-.38-.66-.73-1.3-.78-1.42-.23-.61-.29-.22-.25,1.58m3.09,2.17A5.55,5.55,0,0,0,18,39.15c.63.29.75.22.68-.4-.11-.91-.48-1.44-2.39-3.37l-1.2-1.22.05.5m17.9.62a14.47,14.47,0,0,0-1.94,2.13,1.1,1.1,0,0,1-.18.32c-.27.38-.48,1.37-.33,1.52s1.65-.52,2.22-1.27a7.57,7.57,0,0,0,1.35-3.52c0-.23-.1-.18-1.12.82m-25.84.36c1.75,1.59,4.22,2.71,5.72,2.61a3.46,3.46,0,0,0,1.64-.43,8.34,8.34,0,0,0-2.69-1.67,21,21,0,0,0-4.67-.51m33.12.07c-2.73.25-4.39.82-5.28,1.83s2,1,3.83.18a15.24,15.24,0,0,0,3.16-2.08c0-.09,0-.09-1.71.07M18.89,36.9a4.69,4.69,0,0,0,3.71,3.16c.94,0,.92.06.64-.57-.4-.92-1-1.41-2.55-2-.45-.18-1-.42-1.25-.53-.51-.26-.63-.27-.55-.06m11,.05c-.22.11-.55.26-.72.32-1.61.62-1.68.66-2.34,1.3-1.12,1.11-1.16,1.56-.12,1.49a4.32,4.32,0,0,0,3.59-2.83c.23-.56.21-.58-.41-.28M32,39.49c-1.48.22-2,.48-1.65.8a5.91,5.91,0,0,0,4.7.69,13.26,13.26,0,0,0,2.47-.82,23.65,23.65,0,0,0-4.67-.79l-.85.12m-17.35,0c-.52.07-1.77.31-2.62.51l-.5.11.27.11a12.22,12.22,0,0,0,4.07.86c1.56,0,3.29-.57,3.23-1.08s-2.85-.72-4.45-.51m7.41,1.09a15.83,15.83,0,0,0-3.68,1.53c-1.5.75-1.58.83-.86.83a12.92,12.92,0,0,0,4.9-1c.55-.28,1.6-1.28,1.5-1.44a3.68,3.68,0,0,0-1.86.08m3.28-.11c-.14.1-.1.14.63.82a4.23,4.23,0,0,0,2.08,1.11,11.59,11.59,0,0,0,3.27.5l1.09.05-.22-.18a4,4,0,0,0-.8-.42,11.8,11.8,0,0,1-1.18-.59c-1.4-.85-4.37-1.63-4.87-1.29"/></svg>